<svg width="311" height="112" viewBox="0 0 311 112" fill="none" xmlns="http://www.w3.org/2000/svg">
<path d="M207.782 90.4959C206.885 90.4959 206.119 90.1787 205.484 89.5439C204.849 88.9092 204.532 88.1439 204.532 87.2479C204.532 86.3147 204.849 85.5307 205.484 84.8959C206.157 84.2612 206.922 83.9439 207.782 83.9439C208.678 83.9439 209.444 84.2799 210.079 84.9519C210.714 85.5867 211.032 86.3519 211.032 87.2479C211.032 88.1067 210.714 88.8719 210.079 89.5439C209.481 90.1787 208.715 90.4959 207.782 90.4959ZM228.729 89.8799C226.525 89.8799 224.339 89.5067 222.173 88.7599C220.006 88.0132 218.25 86.8932 216.905 85.3999C216.494 84.9519 216.326 84.4479 216.401 83.8879C216.476 83.3279 216.756 82.8427 217.242 82.4319C217.765 82.0587 218.306 81.9092 218.867 81.9839C219.427 82.0587 219.894 82.3012 220.268 82.7119C221.164 83.7572 222.341 84.5599 223.798 85.1199C225.292 85.6799 226.936 85.9599 228.729 85.9599C231.494 85.9599 233.492 85.4932 234.725 84.5599C235.958 83.5892 236.593 82.4319 236.63 81.0879C236.63 79.7439 235.995 78.6427 234.725 77.7839C233.455 76.8879 231.363 76.1972 228.449 75.7119C224.676 75.1147 221.911 74.0692 220.156 72.5759C218.4 71.0827 217.522 69.3092 217.522 67.2559C217.522 65.3519 218.026 63.7652 219.035 62.4959C220.043 61.2267 221.388 60.2747 223.069 59.6399C224.75 59.0052 226.6 58.6879 228.617 58.6879C231.12 58.6879 233.268 59.1172 235.061 59.9759C236.892 60.8347 238.367 61.9919 239.488 63.4479C239.861 63.9332 240.011 64.4372 239.936 64.9599C239.861 65.4827 239.563 65.9119 239.04 66.2479C238.591 66.5092 238.068 66.6027 237.471 66.5279C236.91 66.4159 236.425 66.1359 236.014 65.6879C234.183 63.5972 231.68 62.5519 228.505 62.5519C226.45 62.5519 224.807 62.9812 223.574 63.8399C222.341 64.6612 221.725 65.7067 221.725 66.9759C221.725 68.2452 222.266 69.2907 223.35 70.1119C224.47 70.9332 226.562 71.6052 229.626 72.1279C232.427 72.5759 234.632 73.2479 236.238 74.1439C237.882 75.0027 239.04 76.0292 239.712 77.2239C240.422 78.3812 240.777 79.6507 240.777 81.0319C240.777 82.7867 240.254 84.3359 239.208 85.6799C238.199 86.9867 236.779 88.0132 234.949 88.7599C233.156 89.5067 231.083 89.8799 228.729 89.8799ZM260.729 89.9359C258.077 89.9359 255.704 89.3947 253.613 88.3119C251.521 87.1919 249.858 85.5679 248.625 83.4399C247.43 81.3119 246.832 78.7172 246.832 75.6559V61.0959C246.832 60.4987 247.038 59.9947 247.449 59.5839C247.859 59.1732 248.364 58.9679 248.962 58.9679C249.597 58.9679 250.12 59.1732 250.531 59.5839C250.941 59.9947 251.147 60.4987 251.147 61.0959V75.6559C251.147 79.0907 252.1 81.6479 254.005 83.3279C255.91 85.0079 258.301 85.8479 261.178 85.8479C263.008 85.8479 264.652 85.4932 266.109 84.7839C267.603 84.0747 268.78 83.1039 269.639 81.8719C270.498 80.6399 270.928 79.2399 270.928 77.6719V61.0959C270.928 60.4612 271.114 59.9572 271.488 59.5839C271.899 59.1732 272.422 58.9679 273.057 58.9679C273.692 58.9679 274.215 59.1732 274.626 59.5839C275.037 59.9572 275.243 60.4612 275.243 61.0959V87.4159C275.243 88.0879 275.037 88.6292 274.626 89.0399C274.215 89.4132 273.692 89.5999 273.057 89.5999C272.422 89.5999 271.899 89.4132 271.488 89.0399C271.114 88.6292 270.928 88.0879 270.928 87.4159V85.5119C269.695 86.8932 268.201 87.9759 266.445 88.7599C264.689 89.5439 262.784 89.9359 260.729 89.9359ZM295.178 89.8799C292.973 89.8799 290.788 89.5067 288.622 88.7599C286.453 88.0132 284.7 86.8932 283.355 85.3999C282.943 84.9519 282.775 84.4479 282.85 83.8879C282.923 83.3279 283.203 82.8427 283.691 82.4319C284.212 82.0587 284.756 81.9092 285.316 81.9839C285.876 82.0587 286.341 82.3012 286.717 82.7119C287.613 83.7572 288.79 84.5599 290.247 85.1199C291.74 85.6799 293.385 85.9599 295.178 85.9599C297.941 85.9599 299.941 85.4932 301.174 84.5599C302.407 83.5892 303.04 82.4319 303.079 81.0879C303.079 79.7439 302.443 78.6427 301.174 77.7839C299.902 76.8879 297.812 76.1972 294.898 75.7119C291.124 75.1147 288.359 74.0692 286.605 72.5759C284.848 71.0827 283.971 69.3092 283.971 67.2559C283.971 65.3519 284.475 63.7652 285.484 62.4959C286.493 61.2267 287.838 60.2747 289.519 59.6399C291.2 59.0052 293.049 58.6879 295.066 58.6879C297.568 58.6879 299.717 59.1172 301.51 59.9759C303.34 60.8347 304.816 61.9919 305.937 63.4479C306.31 63.9332 306.458 64.4372 306.385 64.9599C306.31 65.4827 306.01 65.9119 305.489 66.2479C305.041 66.5092 304.517 66.6027 303.92 66.5279C303.359 66.4159 302.872 66.1359 302.463 65.6879C300.631 63.5972 298.129 62.5519 294.954 62.5519C292.898 62.5519 291.256 62.9812 290.023 63.8399C288.79 64.6612 288.174 65.7067 288.174 66.9759C288.174 68.2452 288.714 69.2907 289.799 70.1119C290.919 70.9332 293.01 71.6052 296.075 72.1279C298.877 72.5759 301.079 73.2479 302.687 74.1439C304.329 75.0027 305.489 76.0292 306.161 77.2239C306.87 78.3812 307.226 79.6507 307.226 81.0319C307.226 82.7867 306.702 84.3359 305.657 85.6799C304.648 86.9867 303.228 88.0132 301.398 88.7599C299.605 89.5067 297.532 89.8799 295.178 89.8799Z" fill="white"/>
<path d="M5.74941 89.6C4.20282 89.6 3.0933 88.9616 2.42087 87.6848C1.74844 86.408 1.68119 85.1648 2.21914 83.9552L31.8734 13.5968C32.6131 11.7824 33.8907 10.8752 35.7063 10.8752C37.4546 10.8752 38.6986 11.7824 39.4383 13.5968L69.1934 84.056C69.7986 85.3328 69.6977 86.576 68.8908 87.7856C68.1511 88.9952 67.0753 89.6 65.6631 89.6C63.8476 89.6 62.6036 88.7936 61.9311 87.1808L55.2741 70.8512H16.1385L9.38055 87.1808C9.04433 87.9872 8.54 88.592 7.86757 88.9952C7.26238 89.3984 6.55633 89.6 5.74941 89.6ZM18.9627 64.0976H52.4498L35.7063 23.6768L18.9627 64.0976ZM100.824 90.104C95.5119 90.104 90.8048 88.928 86.703 86.576C82.6012 84.1568 79.3735 80.8304 77.02 76.5968C74.7337 72.3632 73.5906 67.5248 73.5906 62.0816C73.5906 56.5712 74.8009 51.6992 77.2217 47.4656C79.6425 43.232 82.971 39.9392 87.2073 37.5872C91.4436 35.168 96.2515 33.9584 101.631 33.9584C107.078 33.9584 111.886 35.168 116.055 37.5872C120.291 39.9392 123.586 43.232 125.939 47.4656C128.36 51.6992 129.604 56.5712 129.671 62.0816V82.6448C129.671 88.088 128.461 92.96 126.04 97.2608C123.62 101.629 120.325 105.056 116.156 107.542C111.986 110.096 107.212 111.373 101.833 111.373C96.5205 111.373 91.8471 110.365 87.8125 108.349C83.7779 106.4 80.4494 103.712 77.8269 100.285C77.0872 99.4784 76.751 98.6048 76.8182 97.664C76.9527 96.7232 77.457 95.9504 78.3312 95.3456C79.2054 94.7408 80.1804 94.5392 81.2563 94.7408C82.3322 94.9424 83.1727 95.4464 83.7779 96.2528C85.728 98.672 88.216 100.621 91.2419 102.099C94.3351 103.578 97.899 104.317 101.934 104.317C105.699 104.317 109.095 103.41 112.121 101.595C115.147 99.7808 117.534 97.2272 119.282 93.9344C121.098 90.6416 122.006 86.7776 122.006 82.3424V77.7056C119.988 81.536 117.131 84.56 113.432 86.7776C109.801 88.9952 105.598 90.104 100.824 90.104ZM101.631 83.048C105.598 83.048 109.095 82.1744 112.121 80.4272C115.214 78.6128 117.635 76.1264 119.383 72.968C121.132 69.8096 122.006 66.1808 122.006 62.0816C122.006 57.9824 121.132 54.3536 119.383 51.1952C117.635 47.9696 115.214 45.4832 112.121 43.736C109.095 41.9216 105.598 41.0144 101.631 41.0144C97.6636 41.0144 94.1334 41.9216 91.0402 43.736C87.947 45.4832 85.5262 47.9696 83.7779 51.1952C82.0296 54.3536 81.1554 57.9824 81.1554 62.0816C81.1554 66.1808 82.0296 69.8096 83.7779 72.968C85.5262 76.1264 87.947 78.6128 91.0402 80.4272C94.1334 82.1744 97.6636 83.048 101.631 83.048ZM147.097 89.6C144.541 89.6 143.264 88.3232 143.264 85.7696V38.2928C143.264 35.7392 144.541 34.4624 147.097 34.4624C149.652 34.4624 150.93 35.7392 150.93 38.2928V42.6272C152.947 39.9392 155.435 37.8224 158.394 36.2768C161.352 34.664 164.614 33.8576 168.177 33.8576C171.271 33.8576 173.658 34.2944 175.339 35.168C177.02 36.0416 177.659 37.3184 177.255 38.9984C176.919 40.544 176.112 41.3504 174.835 41.4176C173.624 41.4176 172.178 41.3504 170.497 41.216C166.732 40.88 163.37 41.2832 160.411 42.4256C157.519 43.5008 155.199 45.1808 153.451 47.4656C151.77 49.7504 150.93 52.472 150.93 55.6304V85.7696C150.93 88.3232 149.652 89.6 147.097 89.6ZM193.495 89.6C192.285 89.6 191.31 89.264 190.57 88.592C189.898 87.8528 189.561 86.8784 189.561 85.6688V38.3936C189.561 37.184 189.898 36.2432 190.57 35.5712C191.31 34.832 192.285 34.4624 193.495 34.4624C194.638 34.4624 195.546 34.832 196.218 35.5712C196.958 36.2432 197.328 37.184 197.328 38.3936V85.6688C197.328 86.8784 196.958 87.8528 196.218 88.592C195.546 89.264 194.638 89.6 193.495 89.6ZM193.394 23.9792C191.915 23.9792 190.637 23.4416 189.561 22.3664C188.485 21.2912 187.948 19.9808 187.948 18.4352C187.948 16.7552 188.485 15.4448 189.561 14.504C190.704 13.496 192.016 12.992 193.495 12.992C194.907 12.992 196.151 13.496 197.227 14.504C198.37 15.4448 198.942 16.7552 198.942 18.4352C198.942 19.9808 198.404 21.2912 197.328 22.3664C196.252 23.4416 194.941 23.9792 193.394 23.9792Z" fill="white"/>
</svg>
