<svg width="390" height="90" viewBox="0 0 390 90" fill="none" xmlns="http://www.w3.org/2000/svg">
<path d="M286.824 73.24C285.528 73.24 284.312 72.992 283.176 72.496C282.056 72 281.064 71.312 280.2 70.432C279.352 69.536 278.688 68.512 278.208 67.36C277.728 66.192 277.488 64.944 277.488 63.616C277.488 62.304 277.72 61.072 278.184 59.92C278.664 58.752 279.328 57.728 280.176 56.848C281.04 55.968 282.032 55.28 283.152 54.784C284.288 54.272 285.512 54.016 286.824 54.016C287.976 54.016 289.024 54.184 289.968 54.52C290.912 54.856 291.824 55.392 292.704 56.128C292.912 56.288 293 56.496 292.968 56.752C292.936 56.992 292.816 57.16 292.608 57.256C292.56 57.448 292.408 57.568 292.152 57.616C291.912 57.664 291.672 57.592 291.432 57.4C290.808 56.856 290.128 56.456 289.392 56.2C288.656 55.928 287.8 55.792 286.824 55.792C285.784 55.792 284.808 56 283.896 56.416C283 56.832 282.208 57.4 281.52 58.12C280.832 58.84 280.288 59.672 279.888 60.616C279.504 61.56 279.312 62.56 279.312 63.616C279.312 64.704 279.504 65.72 279.888 66.664C280.288 67.608 280.832 68.44 281.52 69.16C282.208 69.88 283 70.448 283.896 70.864C284.808 71.264 285.784 71.464 286.824 71.464C288.552 71.464 290.128 70.904 291.552 69.784C291.84 69.56 292.144 69.528 292.464 69.688C292.8 69.848 292.968 70.12 292.968 70.504C292.968 70.76 292.88 70.984 292.704 71.176C291.888 71.928 290.976 72.464 289.968 72.784C288.96 73.088 287.912 73.24 286.824 73.24ZM301.139 73.12C299.907 73.12 298.803 72.832 297.827 72.256C296.851 71.664 296.075 70.864 295.499 69.856C294.939 68.848 294.659 67.712 294.659 66.448C294.659 65.168 294.947 64.024 295.523 63.016C296.115 62.008 296.915 61.216 297.923 60.64C298.931 60.048 300.067 59.752 301.331 59.752C302.595 59.752 303.723 60.048 304.715 60.64C305.723 61.216 306.515 62.008 307.091 63.016C307.683 64.024 307.987 65.168 308.003 66.448V72.088C308.003 72.36 307.915 72.584 307.739 72.76C307.563 72.92 307.339 73 307.067 73C306.795 73 306.571 72.92 306.395 72.76C306.219 72.584 306.131 72.36 306.131 72.088V70.624C305.587 71.392 304.883 72 304.019 72.448C303.155 72.896 302.195 73.12 301.139 73.12ZM301.331 71.44C302.259 71.44 303.083 71.224 303.803 70.792C304.539 70.36 305.115 69.768 305.531 69.016C305.963 68.248 306.179 67.392 306.179 66.448C306.179 65.488 305.963 64.632 305.531 63.88C305.115 63.128 304.539 62.536 303.803 62.104C303.083 61.656 302.259 61.432 301.331 61.432C300.419 61.432 299.595 61.656 298.859 62.104C298.123 62.536 297.539 63.128 297.107 63.88C296.675 64.632 296.459 65.488 296.459 66.448C296.459 67.392 296.675 68.248 297.107 69.016C297.539 69.768 298.123 70.36 298.859 70.792C299.595 71.224 300.419 71.44 301.331 71.44ZM317.213 73.12C315.949 73.12 314.813 72.832 313.805 72.256C312.797 71.664 311.997 70.864 311.405 69.856C310.829 68.848 310.541 67.704 310.541 66.424C310.541 65.16 310.821 64.024 311.381 63.016C311.957 62.008 312.733 61.216 313.709 60.64C314.685 60.048 315.789 59.752 317.021 59.752C318.093 59.752 319.061 59.984 319.925 60.448C320.789 60.896 321.485 61.496 322.013 62.248V55.192C322.013 54.904 322.101 54.68 322.277 54.52C322.453 54.344 322.677 54.256 322.949 54.256C323.221 54.256 323.445 54.344 323.621 54.52C323.797 54.68 323.885 54.904 323.885 55.192V66.52C323.853 67.768 323.541 68.896 322.949 69.904C322.373 70.896 321.581 71.68 320.573 72.256C319.581 72.832 318.461 73.12 317.213 73.12ZM317.213 71.44C318.141 71.44 318.965 71.224 319.685 70.792C320.421 70.344 320.997 69.744 321.413 68.992C321.845 68.24 322.061 67.384 322.061 66.424C322.061 65.48 321.845 64.632 321.413 63.88C320.997 63.112 320.421 62.512 319.685 62.08C318.965 61.648 318.141 61.432 317.213 61.432C316.301 61.432 315.477 61.648 314.741 62.08C314.005 62.512 313.421 63.112 312.989 63.88C312.557 64.632 312.341 65.48 312.341 66.424C312.341 67.384 312.557 68.24 312.989 68.992C313.421 69.744 314.005 70.344 314.741 70.792C315.477 71.224 316.301 71.44 317.213 71.44ZM333.63 73.12C332.398 73.12 331.294 72.832 330.318 72.256C329.342 71.664 328.566 70.864 327.99 69.856C327.43 68.848 327.15 67.712 327.15 66.448C327.15 65.168 327.438 64.024 328.014 63.016C328.606 62.008 329.406 61.216 330.414 60.64C331.422 60.048 332.558 59.752 333.822 59.752C335.086 59.752 336.214 60.048 337.206 60.64C338.214 61.216 339.006 62.008 339.582 63.016C340.174 64.024 340.478 65.168 340.494 66.448V72.088C340.494 72.36 340.406 72.584 340.23 72.76C340.054 72.92 339.83 73 339.558 73C339.286 73 339.062 72.92 338.886 72.76C338.71 72.584 338.622 72.36 338.622 72.088V70.624C338.078 71.392 337.374 72 336.51 72.448C335.646 72.896 334.686 73.12 333.63 73.12ZM333.822 71.44C334.75 71.44 335.574 71.224 336.294 70.792C337.03 70.36 337.606 69.768 338.022 69.016C338.454 68.248 338.67 67.392 338.67 66.448C338.67 65.488 338.454 64.632 338.022 63.88C337.606 63.128 337.03 62.536 336.294 62.104C335.574 61.656 334.75 61.432 333.822 61.432C332.91 61.432 332.086 61.656 331.35 62.104C330.614 62.536 330.03 63.128 329.598 63.88C329.166 64.632 328.95 65.488 328.95 66.448C328.95 67.392 329.166 68.248 329.598 69.016C330.03 69.768 330.614 70.36 331.35 70.792C332.086 71.224 332.91 71.44 333.822 71.44ZM348.312 73.12C347.368 73.12 346.432 72.96 345.504 72.64C344.576 72.32 343.824 71.84 343.248 71.2C343.072 71.008 343 70.792 343.032 70.552C343.064 70.312 343.184 70.104 343.392 69.928C343.616 69.768 343.848 69.704 344.088 69.736C344.328 69.768 344.528 69.872 344.688 70.048C345.072 70.496 345.576 70.84 346.2 71.08C346.84 71.32 347.544 71.44 348.312 71.44C349.496 71.44 350.352 71.24 350.88 70.84C351.408 70.424 351.68 69.928 351.696 69.352C351.696 68.776 351.424 68.304 350.88 67.936C350.336 67.552 349.44 67.256 348.192 67.048C346.576 66.792 345.392 66.344 344.64 65.704C343.888 65.064 343.512 64.304 343.512 63.424C343.512 62.608 343.728 61.928 344.16 61.384C344.592 60.84 345.168 60.432 345.888 60.16C346.608 59.888 347.4 59.752 348.264 59.752C349.336 59.752 350.256 59.936 351.024 60.304C351.808 60.672 352.44 61.168 352.92 61.792C353.08 62 353.144 62.216 353.112 62.44C353.08 62.664 352.952 62.848 352.728 62.992C352.536 63.104 352.312 63.144 352.056 63.112C351.816 63.064 351.608 62.944 351.432 62.752C350.648 61.856 349.576 61.408 348.216 61.408C347.336 61.408 346.632 61.592 346.104 61.96C345.576 62.312 345.312 62.76 345.312 63.304C345.312 63.848 345.544 64.296 346.008 64.648C346.488 65 347.384 65.288 348.696 65.512C349.896 65.704 350.84 65.992 351.528 66.376C352.232 66.744 352.728 67.184 353.016 67.696C353.32 68.192 353.472 68.736 353.472 69.328C353.472 70.08 353.248 70.744 352.8 71.32C352.368 71.88 351.76 72.32 350.976 72.64C350.208 72.96 349.32 73.12 348.312 73.12ZM361.441 73C360.593 73 359.833 72.8 359.161 72.4C358.505 72 357.985 71.456 357.601 70.768C357.217 70.064 357.025 69.264 357.025 68.368V61.96H355.465C355.225 61.96 355.025 61.888 354.865 61.744C354.705 61.584 354.625 61.392 354.625 61.168C354.625 60.928 354.705 60.736 354.865 60.592C355.025 60.432 355.225 60.352 355.465 60.352H357.025V56.632C357.025 56.36 357.105 56.136 357.265 55.96C357.441 55.784 357.665 55.696 357.937 55.696C358.209 55.696 358.433 55.784 358.609 55.96C358.785 56.136 358.873 56.36 358.873 56.632V60.352H361.585C361.825 60.352 362.025 60.432 362.185 60.592C362.345 60.736 362.425 60.928 362.425 61.168C362.425 61.392 362.345 61.584 362.185 61.744C362.025 61.888 361.825 61.96 361.585 61.96H358.873V68.368C358.873 69.184 359.113 69.856 359.593 70.384C360.073 70.896 360.689 71.152 361.441 71.152H362.089C362.345 71.152 362.553 71.24 362.713 71.416C362.873 71.592 362.953 71.816 362.953 72.088C362.953 72.36 362.857 72.584 362.665 72.76C362.473 72.92 362.233 73 361.945 73H361.441ZM366.514 73C365.906 73 365.602 72.696 365.602 72.088V60.784C365.602 60.176 365.906 59.872 366.514 59.872C367.122 59.872 367.426 60.176 367.426 60.784V61.816C367.906 61.176 368.498 60.672 369.202 60.304C369.906 59.92 370.682 59.728 371.53 59.728C372.266 59.728 372.834 59.832 373.234 60.04C373.634 60.248 373.786 60.552 373.69 60.952C373.61 61.32 373.418 61.512 373.114 61.528C372.826 61.528 372.482 61.512 372.082 61.48C371.186 61.4 370.386 61.496 369.682 61.768C368.994 62.024 368.442 62.424 368.026 62.968C367.626 63.512 367.426 64.16 367.426 64.912V72.088C367.426 72.696 367.122 73 366.514 73ZM381.249 73.12C379.969 73.12 378.825 72.832 377.817 72.256C376.809 71.68 376.017 70.888 375.441 69.88C374.865 68.872 374.577 67.728 374.577 66.448C374.577 65.152 374.865 64 375.441 62.992C376.017 61.984 376.809 61.192 377.817 60.616C378.825 60.04 379.969 59.752 381.249 59.752C382.529 59.752 383.665 60.04 384.657 60.616C385.665 61.192 386.457 61.984 387.033 62.992C387.609 64 387.905 65.152 387.921 66.448C387.921 67.728 387.625 68.872 387.033 69.88C386.457 70.888 385.665 71.68 384.657 72.256C383.665 72.832 382.529 73.12 381.249 73.12ZM381.249 71.44C382.177 71.44 383.009 71.224 383.745 70.792C384.481 70.36 385.057 69.768 385.473 69.016C385.889 68.264 386.097 67.408 386.097 66.448C386.097 65.488 385.889 64.632 385.473 63.88C385.057 63.112 384.481 62.512 383.745 62.08C383.009 61.648 382.177 61.432 381.249 61.432C380.321 61.432 379.489 61.648 378.753 62.08C378.017 62.512 377.433 63.112 377.001 63.88C376.585 64.632 376.377 65.488 376.377 66.448C376.377 67.408 376.585 68.264 377.001 69.016C377.433 69.768 378.017 70.36 378.753 70.792C379.489 71.224 380.321 71.44 381.249 71.44Z" fill="white"/>
<path d="M265 0H266V90H265V0Z" fill="white"/>
<path d="M167.027 72.7199C166.306 72.7199 165.691 72.465 165.18 71.9549C164.67 71.4449 164.414 70.8299 164.414 70.1099C164.414 69.36 164.67 68.73 165.18 68.2199C165.721 67.7099 166.336 67.4549 167.027 67.4549C167.748 67.4549 168.363 67.7249 168.874 68.2649C169.384 68.775 169.64 69.3899 169.64 70.1099C169.64 70.8 169.384 71.4149 168.874 71.9549C168.393 72.465 167.778 72.7199 167.027 72.7199ZM183.866 72.2249C182.094 72.2249 180.337 71.925 178.596 71.3249C176.854 70.7249 175.442 69.8249 174.361 68.6249C174.031 68.2649 173.896 67.8599 173.956 67.4099C174.016 66.9599 174.241 66.57 174.632 66.2399C175.052 65.94 175.487 65.8199 175.938 65.8799C176.388 65.94 176.764 66.1349 177.064 66.4649C177.785 67.3049 178.731 67.9499 179.902 68.3999C181.103 68.8499 182.424 69.0749 183.866 69.0749C186.088 69.0749 187.695 68.6999 188.686 67.9499C189.677 67.1699 190.187 66.2399 190.217 65.1599C190.217 64.0799 189.707 63.195 188.686 62.5049C187.665 61.7849 185.983 61.2299 183.641 60.8399C180.607 60.36 178.385 59.5199 176.974 58.3199C175.562 57.12 174.857 55.6949 174.857 54.0449C174.857 52.5149 175.262 51.2399 176.073 50.2199C176.884 49.2 177.965 48.435 179.316 47.9249C180.668 47.4149 182.154 47.1599 183.776 47.1599C185.788 47.1599 187.514 47.5049 188.956 48.1949C190.427 48.885 191.614 49.8149 192.514 50.9849C192.815 51.3749 192.935 51.7799 192.875 52.1999C192.815 52.62 192.575 52.9649 192.154 53.2349C191.794 53.4449 191.373 53.52 190.893 53.4599C190.442 53.3699 190.052 53.1449 189.722 52.7849C188.25 51.1049 186.238 50.2649 183.686 50.2649C182.034 50.2649 180.713 50.6099 179.722 51.2999C178.731 51.9599 178.235 52.8 178.235 53.8199C178.235 54.8399 178.67 55.68 179.541 56.3399C180.442 56.9999 182.124 57.5399 184.586 57.9599C186.839 58.3199 188.611 58.8599 189.902 59.5799C191.223 60.27 192.154 61.0949 192.695 62.0549C193.265 62.9849 193.55 64.005 193.55 65.1149C193.55 66.525 193.13 67.7699 192.289 68.8499C191.478 69.9 190.337 70.7249 188.866 71.3249C187.424 71.925 185.758 72.2249 183.866 72.2249ZM209.589 72.2699C207.457 72.2699 205.55 71.835 203.869 70.9649C202.187 70.0649 200.851 68.7599 199.86 67.0499C198.899 65.3399 198.418 63.2549 198.418 60.7949V49.0949C198.418 48.615 198.583 48.21 198.914 47.8799C199.244 47.5499 199.649 47.3849 200.13 47.3849C200.64 47.3849 201.061 47.5499 201.391 47.8799C201.721 48.21 201.887 48.615 201.887 49.0949V60.7949C201.887 63.555 202.652 65.6099 204.184 66.9599C205.716 68.3099 207.637 68.9849 209.95 68.9849C211.421 68.9849 212.743 68.6999 213.914 68.1299C215.115 67.56 216.061 66.7799 216.752 65.7899C217.442 64.7999 217.788 63.6749 217.788 62.4149V49.0949C217.788 48.5849 217.938 48.1799 218.238 47.8799C218.568 47.5499 218.989 47.3849 219.499 47.3849C220.01 47.3849 220.43 47.5499 220.761 47.8799C221.091 48.1799 221.256 48.5849 221.256 49.0949V70.2449C221.256 70.7849 221.091 71.2199 220.761 71.5499C220.43 71.8499 220.01 71.9999 219.499 71.9999C218.989 71.9999 218.568 71.8499 218.238 71.5499C217.938 71.2199 217.788 70.7849 217.788 70.2449V68.7149C216.797 69.8249 215.595 70.6949 214.184 71.3249C212.773 71.9549 211.241 72.2699 209.589 72.2699ZM237.282 72.2249C235.509 72.2249 233.752 71.925 232.011 71.3249C230.268 70.7249 228.858 69.8249 227.777 68.6249C227.446 68.2649 227.311 67.8599 227.372 67.4099C227.43 66.9599 227.655 66.57 228.047 66.2399C228.466 65.94 228.903 65.8199 229.354 65.8799C229.804 65.94 230.178 66.1349 230.48 66.4649C231.2 67.3049 232.146 67.9499 233.318 68.3999C234.518 68.8499 235.84 69.0749 237.282 69.0749C239.502 69.0749 241.11 68.6999 242.101 67.9499C243.092 67.1699 243.601 66.2399 243.633 65.1599C243.633 64.0799 243.122 63.195 242.101 62.5049C241.079 61.7849 239.399 61.2299 237.056 60.8399C234.023 60.36 231.8 59.5199 230.39 58.3199C228.977 57.12 228.273 55.6949 228.273 54.0449C228.273 52.5149 228.678 51.2399 229.489 50.2199C230.3 49.2 231.381 48.435 232.732 47.9249C234.083 47.4149 235.57 47.1599 237.191 47.1599C239.203 47.1599 240.93 47.5049 242.372 48.1949C243.842 48.885 245.029 49.8149 245.93 50.9849C246.23 51.3749 246.349 51.7799 246.291 52.1999C246.23 52.62 245.989 52.9649 245.57 53.2349C245.209 53.4449 244.788 53.52 244.309 53.4599C243.858 53.3699 243.466 53.1449 243.137 52.7849C241.664 51.1049 239.653 50.2649 237.101 50.2649C235.448 50.2649 234.128 50.6099 233.137 51.2999C232.146 51.9599 231.651 52.8 231.651 53.8199C231.651 54.8399 232.086 55.68 232.957 56.3399C233.858 56.9999 235.538 57.5399 238.002 57.9599C240.255 58.3199 242.025 58.8599 243.318 59.5799C244.637 60.27 245.57 61.0949 246.11 62.0549C246.68 62.9849 246.966 64.005 246.966 65.1149C246.966 66.525 246.545 67.7699 245.705 68.8499C244.894 69.9 243.752 70.7249 242.282 71.3249C240.84 71.925 239.173 72.2249 237.282 72.2249Z" fill="white"/>
<path d="M4.62171 72C3.37847 72 2.48658 71.487 1.94604 70.461C1.4055 69.435 1.35144 68.436 1.78387 67.464L25.6217 10.926C26.2163 9.46804 27.2433 8.73904 28.7028 8.73904C30.1082 8.73904 31.1082 9.46804 31.7028 10.926L55.6217 67.545C56.1082 68.571 56.0271 69.57 55.3785 70.542C54.7839 71.514 53.919 72 52.7839 72C51.3244 72 50.3244 71.352 49.7839 70.056L44.4325 56.934H12.9731L7.54063 70.056C7.27036 70.704 6.86496 71.19 6.32442 71.514C5.83793 71.838 5.27036 72 4.62171 72ZM15.2433 51.507H42.1623L28.7028 19.026L15.2433 51.507ZM81.0483 72.405C76.778 72.405 72.9942 71.46 69.6969 69.57C66.3996 67.626 63.805 64.953 61.9132 61.551C60.0753 58.149 59.1564 54.261 59.1564 49.887C59.1564 45.459 60.1294 41.544 62.0753 38.142C64.0213 34.74 66.6969 32.094 70.1023 30.204C73.5078 28.26 77.3726 27.288 81.6969 27.288C86.0753 27.288 89.9402 28.26 93.2915 30.204C96.6969 32.094 99.3456 34.74 101.237 38.142C103.183 41.544 104.183 45.459 104.237 49.887V66.411C104.237 70.785 103.265 74.7 101.319 78.156C99.3726 81.666 96.724 84.4201 93.3726 86.418C90.0213 88.47 86.1834 89.496 81.8591 89.496C77.5888 89.496 73.8321 88.686 70.5888 87.066C67.3456 85.5 64.6699 83.34 62.5618 80.586C61.9672 79.938 61.6969 79.236 61.751 78.48C61.8591 77.724 62.2645 77.103 62.9672 76.617C63.6699 76.131 64.4537 75.969 65.3186 76.131C66.1834 76.293 66.8591 76.698 67.3456 77.346C68.9132 79.29 70.9132 80.856 73.3456 82.0441C75.8321 83.232 78.6969 83.826 81.9402 83.826C84.9672 83.826 87.6969 83.097 90.1294 81.639C92.5618 80.181 94.4807 78.129 95.8861 75.483C97.3456 72.837 98.0753 69.732 98.0753 66.168V62.442C96.4537 65.52 94.1564 67.95 91.1834 69.732C88.2645 71.514 84.8861 72.405 81.0483 72.405ZM81.6969 66.735C84.8861 66.735 87.6969 66.033 90.1294 64.629C92.6159 63.171 94.5618 61.173 95.9672 58.635C97.3726 56.097 98.0753 53.181 98.0753 49.887C98.0753 46.593 97.3726 43.677 95.9672 41.139C94.5618 38.547 92.6159 36.549 90.1294 35.145C87.6969 33.687 84.8861 32.958 81.6969 32.958C78.5077 32.958 75.6699 33.687 73.1834 35.145C70.6969 36.549 68.751 38.547 67.3456 41.139C65.9402 43.677 65.2375 46.593 65.2375 49.887C65.2375 53.181 65.9402 56.097 67.3456 58.635C68.751 61.173 70.6969 63.171 73.1834 64.629C75.6699 66.033 78.5077 66.735 81.6969 66.735ZM118.245 72C116.191 72 115.164 70.974 115.164 68.922V30.771C115.164 28.719 116.191 27.693 118.245 27.693C120.299 27.693 121.326 28.719 121.326 30.771V34.254C122.948 32.094 124.948 30.393 127.326 29.151C129.704 27.855 132.326 27.207 135.191 27.207C137.677 27.207 139.596 27.558 140.948 28.26C142.299 28.962 142.812 29.988 142.488 31.338C142.218 32.58 141.569 33.228 140.542 33.282C139.569 33.282 138.407 33.228 137.056 33.12C134.029 32.85 131.326 33.174 128.948 34.092C126.623 34.956 124.758 36.306 123.353 38.142C122.002 39.978 121.326 42.165 121.326 44.703V68.922C121.326 70.974 120.299 72 118.245 72ZM155.543 72C154.57 72 153.786 71.73 153.191 71.19C152.651 70.596 152.38 69.813 152.38 68.841V30.852C152.38 29.88 152.651 29.124 153.191 28.584C153.786 27.99 154.57 27.693 155.543 27.693C156.462 27.693 157.191 27.99 157.732 28.584C158.326 29.124 158.624 29.88 158.624 30.852V68.841C158.624 69.813 158.326 70.596 157.732 71.19C157.191 71.73 156.462 72 155.543 72ZM155.462 19.269C154.272 19.269 153.245 18.837 152.38 17.973C151.516 17.109 151.083 16.056 151.083 14.814C151.083 13.464 151.516 12.411 152.38 11.655C153.299 10.845 154.353 10.44 155.543 10.44C156.678 10.44 157.678 10.845 158.543 11.655C159.462 12.411 159.921 13.464 159.921 14.814C159.921 16.056 159.489 17.109 158.624 17.973C157.759 18.837 156.705 19.269 155.462 19.269Z" fill="white"/>
</svg>
